<?xml version="1.0" standalone="no"?>
<!DOCTYPE svg PUBLIC "-//W3C//DTD SVG 20010904//EN"
 "http://www.w3.org/TR/2001/REC-SVG-20010904/DTD/svg10.dtd">
<svg version="1.0" xmlns="http://www.w3.org/2000/svg"
 width="50.000000pt" height="50.000000pt" viewBox="0 0 50.000000 50.000000"
 preserveAspectRatio="xMidYMid meet">

<g transform="translate(0.000000,50.000000) scale(0.100000,-0.100000)"
fill="#FFFFFF" stroke="none">
<path d="M240 333 l0 -147 -35 34 c-19 18 -38 30 -42 26 -4 -3 14 -28 40 -54
l47 -47 47 47 c26 26 44 51 40 54 -4 4 -23 -8 -42 -26 l-35 -34 0 147 c0 91
-4 147 -10 147 -6 0 -10 -56 -10 -147z"/>
<path d="M135 448 c-64 -35 -115 -123 -115 -198 0 -49 29 -122 63 -159 33 -36
115 -71 167 -71 52 0 134 35 167 71 34 37 63 110 63 159 0 82 -65 185 -131
205 -33 11 -34 -2 -1 -19 63 -32 112 -114 112 -186 0 -46 -21 -100 -53 -137
-101 -115 -283 -88 -348 52 -46 99 -7 205 101 277 28 19 7 24 -25 6z"/>
</g>
</svg>
