<?xml version="1.0" standalone="no"?>
<!DOCTYPE svg PUBLIC "-//W3C//DTD SVG 20010904//EN"
 "http://www.w3.org/TR/2001/REC-SVG-20010904/DTD/svg10.dtd">
<svg version="1.0" xmlns="http://www.w3.org/2000/svg"
 width="50.000000pt" height="50.000000pt" viewBox="0 0 50.000000 50.000000"
 preserveAspectRatio="xMidYMid meet">

<g transform="translate(0.000000,50.000000) scale(0.100000,-0.100000)"
fill="#FFFFFF" stroke="none">
<path d="M155 456 c-60 -28 -87 -56 -114 -116 -36 -79 -19 -183 42 -249 33
-36 115 -71 167 -71 53 0 134 35 169 74 38 40 16 43 -28 3 -62 -56 -146 -72
-219 -41 -110 45 -162 174 -113 279 61 132 224 165 332 68 44 -40 66 -37 28 3
-35 39 -116 74 -169 74 -26 0 -66 -10 -95 -24z"/>
<path d="M380 333 c0 -4 14 -22 32 -40 l32 -33 -112 0 c-68 0 -112 -4 -112
-10 0 -6 44 -10 112 -10 l112 0 -34 -35 c-18 -19 -30 -38 -26 -42 3 -4 28 14
54 40 l46 47 -44 45 c-42 42 -60 54 -60 38z"/>
</g>
</svg>
